<svg xmlns="http://www.w3.org/2000/svg" viewBox="0 0 900 600">
	<!-- Green stripe -->
	<rect width="900" height="200" fill="#007A3D" />

	<!-- White stripe -->
	<rect y="200" width="900" height="200" fill="#FFFFFF" />

	<!-- Black stripe -->
	<rect y="400" width="900" height="200" fill="#000000" />

	<!-- Three red stars -->
	<polygon points="450,275 460,310 495,310 465,330 475,365 450,345 425,365 435,330 405,310 440,310" fill="#FF0000" />
	<polygon points="300,275 310,310 345,310 315,330 325,365 300,345 275,365 285,330 255,310 290,310" fill="#FF0000" />
	<polygon points="600,275 610,310 645,310 615,330 625,365 600,345 575,365 585,330 555,310 590,310" fill="#FF0000" />
</svg>
